<svg width="286" height="286" viewBox="0 0 286 286" fill="none" xmlns="http://www.w3.org/2000/svg">
<g filter="url(#filter0_d)">
<path d="M142.984 266.23C109.6 266.23 78.3187 253.067 54.836 229.125C31.5578 205.39 18.8526 173.938 19.0279 140.544C19.2031 107.178 32.288 75.8742 55.8291 52.4036C79.195 29.1097 110.126 16.2996 142.955 16.2996C176.339 16.2996 207.62 29.4631 231.102 53.4049C254.381 77.1405 267.086 108.592 266.91 141.957C266.735 175.322 253.65 206.626 230.109 230.097C206.743 253.391 175.813 266.23 142.984 266.23ZM142.955 26.3416C112.754 26.3416 84.3062 38.121 62.8096 59.5302C41.167 81.1161 29.1336 109.917 28.9583 140.602C28.8123 171.317 40.4952 200.236 61.9042 222.057C83.4884 244.056 112.258 256.188 142.955 256.188C173.155 256.188 201.603 244.409 223.099 223C244.742 201.414 256.776 172.613 256.951 141.928C257.126 111.242 245.443 82.294 224.034 60.4726C202.45 38.4744 173.651 26.3416 142.955 26.3416Z" fill="white"/>
<path d="M144.824 161.982C139.8 161.982 135.069 160.009 131.535 156.387C124.291 148.995 124.35 137.039 131.681 129.736C135.215 126.231 139.859 124.288 144.824 124.288C149.848 124.288 154.579 126.261 158.113 129.883C161.618 133.476 163.546 138.217 163.517 143.253C163.487 148.289 161.53 153 157.967 156.534C154.433 160.039 149.76 161.982 144.824 161.982ZM144.824 134.33C142.516 134.33 140.326 135.243 138.69 136.862C135.273 140.278 135.244 145.874 138.632 149.319C141.903 152.676 147.657 152.706 150.987 149.378C152.651 147.729 153.557 145.52 153.586 143.164C153.586 140.809 152.71 138.6 151.074 136.921C149.38 135.272 147.16 134.33 144.824 134.33Z" fill="white"/>
<path d="M57.1726 58.3817L61.7582 53.8171L228.883 224.266L224.297 228.831L57.1726 58.3817Z" fill="white"/>
<path d="M225.319 54.7595L229.846 59.383L60.7651 227.888L56.238 223.265L225.319 54.7595Z" fill="white"/>
<path d="M261.916 138.747L261.887 145.226L24.1392 143.871L24.1684 137.393L261.916 138.747Z" fill="white"/>
<path d="M140.472 21.4531L146.898 21.4825L145.554 261.195L139.128 261.165L140.472 21.4531Z" fill="white"/>
<path d="M253.855 184.834L251.372 190.812L32.2296 97.8429L34.7122 91.8648L253.855 184.834Z" fill="white"/>
<path d="M186.152 29.5809L192.081 32.084L99.903 253.067L93.9739 250.564L186.152 29.5809Z" fill="white"/>
<path d="M95.1714 31.554L101.13 29.1097L190.855 251.094L184.896 253.538L95.1714 31.554Z" fill="white"/>
<path d="M251.898 93.1017L254.322 99.1092L34.1572 189.517L31.733 183.509L251.898 93.1017Z" fill="white"/>
<path d="M172.863 277.98C167.781 277.98 163.195 274.476 161.939 269.293C160.508 263.227 164.218 257.101 170.234 255.658C176.864 254.068 183.407 251.859 189.628 249.121C195.323 246.618 201.924 249.239 204.407 254.981C206.889 260.724 204.29 267.379 198.595 269.882C191.147 273.151 183.378 275.772 175.462 277.686C174.586 277.892 173.71 277.98 172.863 277.98ZM106.299 276.155C105.248 276.155 104.167 276.007 103.087 275.683C95.2882 273.328 87.6651 270.294 80.4217 266.613C74.8723 263.816 72.6525 257.013 75.4564 251.418C78.2311 245.823 84.978 243.584 90.5274 246.382C96.6025 249.474 102.999 252.036 109.512 253.98C115.441 255.776 118.829 262.078 117.048 268.056C115.617 272.974 111.148 276.155 106.299 276.155ZM246.115 228.89C243.807 228.89 241.471 228.183 239.485 226.681C234.49 222.97 233.41 215.903 237.09 210.867C241.12 205.331 244.684 199.411 247.692 193.257C250.438 187.661 257.155 185.335 262.734 188.103C268.283 190.871 270.591 197.644 267.845 203.269C264.253 210.631 259.988 217.699 255.169 224.296C252.949 227.27 249.561 228.89 246.115 228.89ZM35.8513 223.059C32.2004 223.059 28.6079 221.262 26.4465 217.935C22.007 211.073 18.1224 203.77 14.9388 196.231C12.5146 190.488 15.1725 183.833 20.8679 181.389C26.5633 178.945 33.1642 181.624 35.5884 187.367C38.2463 193.669 41.4883 199.794 45.2268 205.537C48.6149 210.779 47.1545 217.787 41.9848 221.203C40.0863 222.47 37.9542 223.059 35.8513 223.059ZM270.561 143.695C264.72 143.695 259.784 139.13 259.375 133.152C258.908 126.29 257.827 119.429 256.191 112.773C254.702 106.707 258.353 100.582 264.369 99.0503C270.386 97.5484 276.49 101.23 277.98 107.296C279.937 115.218 281.222 123.404 281.777 131.591C282.215 137.834 277.542 143.223 271.35 143.665C271.087 143.695 270.824 143.695 270.561 143.695ZM16.0487 136.656C15.5814 136.656 15.1141 136.627 14.6468 136.568C8.48401 135.802 4.13211 130.148 4.8915 123.934C5.88455 115.807 7.60778 107.708 10.0028 99.9043C11.8136 93.9262 18.0932 90.5691 24.0223 92.4244C29.9514 94.2502 33.281 100.611 31.441 106.56C29.4549 113.097 27.9945 119.9 27.1767 126.732C26.4757 132.445 21.6273 136.656 16.0487 136.656ZM234.695 62.7107C231.774 62.7107 228.853 61.5622 226.634 59.2652L225.933 58.5289C221.347 53.876 216.382 49.5765 211.154 45.7777C206.13 42.126 204.991 35.0289 208.613 29.9637C212.234 24.8986 219.244 23.7501 224.297 27.4017C230.518 31.9368 236.447 37.0314 241.88 42.5972L242.727 43.4807C247.05 47.9569 246.933 55.1423 242.493 59.4713C240.332 61.6505 237.528 62.7107 234.695 62.7107ZM53.0544 60.8848C50.1629 60.8848 47.2713 59.7658 45.0808 57.5277C40.7289 53.0809 40.7581 45.9249 45.1684 41.5076C50.9515 35.7357 57.2895 30.4349 63.9195 25.8115C69.0308 22.2482 76.0114 23.5439 79.5455 28.668C83.0795 33.8215 81.7944 40.8597 76.7123 44.423C71.1337 48.3103 65.8472 52.757 60.9696 57.616C58.7498 59.7952 55.8875 60.8848 53.0544 60.8848ZM155.485 24.2507C155.105 24.2507 154.754 24.2212 154.375 24.1918C147.628 23.5145 140.706 23.4556 133.9 23.9856C127.679 24.4568 122.305 19.8039 121.838 13.5608C121.37 7.31769 125.985 1.86969 132.177 1.39851C140.267 0.780088 148.504 0.838985 156.565 1.6341C162.728 2.25252 167.255 7.78887 166.642 14.0025C166.058 19.8628 161.18 24.2507 155.485 24.2507Z" fill="#FF1A88"/>
</g>
<defs>
<filter id="filter0_d" x="0.805481" y="0.980469" width="285" height="285" filterUnits="userSpaceOnUse" color-interpolation-filters="sRGB">
<feFlood flood-opacity="0" result="BackgroundImageFix"/>
<feColorMatrix in="SourceAlpha" type="matrix" values="0 0 0 0 0 0 0 0 0 0 0 0 0 0 0 0 0 0 127 0"/>
<feOffset dy="4"/>
<feGaussianBlur stdDeviation="2"/>
<feColorMatrix type="matrix" values="0 0 0 0 0 0 0 0 0 0 0 0 0 0 0 0 0 0 0.25 0"/>
<feBlend mode="normal" in2="BackgroundImageFix" result="effect1_dropShadow"/>
<feBlend mode="normal" in="SourceGraphic" in2="effect1_dropShadow" result="shape"/>
</filter>
</defs>
</svg>
